<svg width="100" height="100" viewBox="0 0 100 100" fill="none" xmlns="http://www.w3.org/2000/svg">
<path d="M50.2539 0.582031C48.2422 1.73438 47.4023 4.15625 48.1445 6.53906C48.2422 6.85156 46.875 8.31641 40.7617 14.4102L33.2812 21.8906L32.1289 21.3438C31.0742 20.8555 30.7422 20.7969 28.8086 20.7969C26.7969 20.7969 26.582 20.8359 25.3516 21.4219C23.5352 22.2812 22.4023 23.375 21.5234 25.1523C20.8203 26.5977 20.8008 26.6953 20.8008 28.7852C20.8008 30.7578 20.8594 31.0703 21.3477 32.125L21.8945 33.2773L14.4141 40.7578C8.32031 46.8711 6.85547 48.2383 6.54297 48.1406C4.16016 47.3984 1.71875 48.2578 0.566406 50.2891C0.078125 51.1289 0 51.4805 0 52.7305C0 54.0586 0.0585938 54.332 0.644531 55.2695C2.57812 58.4922 7.40234 58.3555 9.0625 55.0352C9.60938 53.9609 9.76562 52.0664 9.39453 51.1094C9.21875 50.6797 9.57031 50.2891 13.4961 46.3633C17.3438 42.5156 17.7539 42.1836 17.4219 42.9648C16.2695 45.7188 15.0781 50.2109 14.5703 53.707C12.9492 64.957 15.7227 76.9297 22.1484 86.2266L23.2227 87.7891L21.7578 89.2734C20.4102 90.6602 20.3125 90.8359 20.3125 91.6172C20.3125 92.4375 20.3516 92.4961 24.082 96.2266C29.1211 101.266 28.3008 101.266 33.3398 96.2266C36.6211 92.9648 37.1289 92.3789 37.2461 91.7344L37.3633 90.9922L33.4766 87.0859C31.3477 84.9375 29.3945 83.1406 29.1602 83.082C28.4766 82.9062 27.9102 83.1797 26.7383 84.3125L25.625 85.3672L24.3359 83.3555C20.9961 78.1992 18.7891 72.3008 17.832 66.0117C17.3828 62.9844 17.3828 57.3594 17.8516 54.2148C18.6914 48.4727 20.625 43.082 23.6719 37.9648C24.5898 36.4023 24.9609 35.9531 25.1758 36.0508C26.6406 36.6758 27.1875 36.793 28.8086 36.7734C30.0977 36.7734 30.8398 36.6758 31.5625 36.3828C33.7695 35.5234 35.5078 33.8047 36.3477 31.6953C36.9727 30.1133 36.9922 27.2617 36.3672 25.9141L35.957 24.9766L37.3633 24.0586C38.1445 23.5703 39.668 22.6914 40.7617 22.1445C54.4727 15.1719 70.5469 16.0508 83.5547 24.4688L85.3711 25.6406L84.2773 26.7539C83.4766 27.5742 83.1641 28.043 83.0664 28.5898L82.9492 29.332L86.9727 33.3359L90.9766 37.3594L91.7383 37.2422C92.3828 37.125 92.9688 36.6172 96.2305 33.3359C99.8633 29.7031 100 29.5273 100 28.7852C100 28.043 99.8633 27.8672 96.1328 24.1562C92.4609 20.4844 92.2461 20.3086 91.5234 20.3086C90.8594 20.3086 90.625 20.4648 89.2773 21.7539L87.793 23.2188L86.2305 22.1445C76.5234 15.4453 64.0625 12.7305 52.3438 14.7617C49.1992 15.3086 44.4336 16.6758 42.6758 17.5156C42.3438 17.6914 43.9648 15.9141 46.3672 13.5117C50.293 9.56641 50.6836 9.21484 51.1133 9.39062C51.9141 9.68359 53.9453 9.58594 54.7852 9.19531C55.8398 8.72656 57.1094 7.24219 57.4219 6.14844C58.0273 3.98047 57.168 1.75391 55.2734 0.621094C54.3359 0.0546875 54.0625 -0.00390625 52.7344 -0.00390625C51.4648 -0.00390625 51.1328 0.0742188 50.2539 0.582031ZM53.8867 3.82422C54.4141 4.50781 54.3945 5.11328 53.8477 5.77734C53.2227 6.48047 52.2266 6.48047 51.6211 5.75781C51.0547 5.11328 51.0547 4.48828 51.582 3.82422C51.8945 3.43359 52.1484 3.31641 52.7344 3.31641C53.3203 3.31641 53.5742 3.43359 53.8867 3.82422ZM30.7812 24.4883C32.7148 25.3867 33.8672 27.5742 33.457 29.5859C33.0273 31.6172 31.6211 33.0234 29.5898 33.4531C27.5781 33.8633 25.3906 32.7109 24.4922 30.7773C23.6133 28.8828 23.9648 27.0078 25.4883 25.4844C26.9922 23.9609 28.8867 23.6094 30.7812 24.4883ZM93.8477 26.5586L95.9961 28.707L93.7891 30.9141L91.6016 33.1016L89.4141 30.9141L87.207 28.707L89.3555 26.5586C90.5273 25.3867 91.543 24.4102 91.6016 24.4102C91.6602 24.4102 92.6758 25.3867 93.8477 26.5586ZM5.74219 51.5781C6.34766 52.0469 6.44531 53.1602 5.91797 53.7461C5.15625 54.5859 3.32031 53.8047 3.32031 52.6328C3.32031 51.9883 4.12109 51.168 4.74609 51.168C5 51.168 5.44922 51.3438 5.74219 51.5781ZM30.957 93.7461L28.7109 95.9922L26.5234 93.7852L24.3164 91.5977L26.5625 89.3516L28.8086 87.1055L30.9961 89.293L33.2031 91.5L30.957 93.7461Z" fill="white"/>
<path d="M36.6016 36.5586C34.043 39.1172 33.3984 39.8594 33.3984 40.2891C33.3984 40.9531 49.7266 81.8516 50.1172 82.1445C50.2734 82.2617 54.2578 83.8438 58.9648 85.6602L67.5195 88.9609L70.1172 94.1367C71.543 96.9883 72.832 99.4688 73.0078 99.6445C73.2031 99.8789 73.5938 99.9961 74.1016 99.9961C74.9023 99.9961 74.9414 99.957 87.4609 87.4375C99.9609 74.9375 100 74.8984 100 74.0977C100 73.5898 99.8828 73.1992 99.668 73.0039C99.4727 72.8281 96.9922 71.5391 94.1406 70.1133L88.9648 67.5156L85.8594 59.3906C84.1406 54.918 82.5977 50.9531 82.4023 50.5625L82.0508 49.8594L61.582 41.6758C50.332 37.1836 40.8203 33.4727 40.4688 33.4336C39.8438 33.3555 39.6289 33.5117 36.6016 36.5586ZM60.3516 44.8008L79.5898 52.4961L82.6367 60.3867L85.6836 68.2578L77.0117 76.9688L68.3203 85.6797L60.4102 82.6328L52.5 79.5859L44.8047 60.3477C40.5664 49.7617 37.1094 41.0117 37.1094 40.8945C37.1094 40.7773 37.2461 40.5625 37.4219 40.4062C37.6758 40.1914 39.043 41.4805 47.6758 50.1133L57.6367 60.0742L57.0508 61.3242C54.8242 66.1094 56.7383 71.5195 61.4648 73.7852C62.9688 74.4883 63.0273 74.5078 65.332 74.5078C67.3242 74.5078 67.8516 74.4297 68.8086 74.0586C71.0938 73.1211 73.125 71.0898 74.0625 68.7852C74.4336 67.8477 74.5117 67.3203 74.5117 65.3281C74.5117 63.0234 74.4922 62.9648 73.7891 61.4609C71.5234 56.7344 66.0547 54.8008 61.3086 57.0469L60.0781 57.6328L50.1172 47.6719C41.4844 39.0391 40.1953 37.6719 40.4102 37.418C40.5664 37.2422 40.7812 37.1055 40.8984 37.1055C41.0156 37.1055 49.7656 40.5625 60.3516 44.8008ZM67.7539 59.957C69.0234 60.5039 70.5469 62.1445 70.9766 63.3945C71.9531 66.2852 70.6836 69.3125 67.9297 70.6992C64.9805 72.1641 61.4258 70.875 59.9805 67.7891C59.3359 66.3828 59.2969 64.4102 59.9023 63.0625C61.2891 59.9766 64.668 58.6289 67.7539 59.957ZM91.7969 72.75C93.8477 73.7656 95.5078 74.625 95.5078 74.6641C95.5078 74.6836 90.8203 79.3906 85.0781 85.1328L74.6484 95.5625L72.7539 91.793L70.8594 88.0234L79.4336 79.4492C84.1406 74.7422 88.0078 70.8945 88.0469 70.8945C88.0664 70.8945 89.7656 71.7344 91.7969 72.75Z" fill="white"/>
</svg>
