<svg width="100" height="96" viewBox="0 0 100 96" fill="none" xmlns="http://www.w3.org/2000/svg">
<path d="M6.46073 0.955153C4.2922 1.7366 2.47532 3.37765 1.32268 5.56572C-0.103466 8.26172 -0.00578422 6.03459 -0.00578422 38.7579C-0.00578422 71.4811 -0.103466 69.254 1.32268 71.95C2.49486 74.1771 4.33127 75.7987 6.59748 76.5801C7.57429 76.9122 8.31667 76.9513 14.666 76.9513H21.66L22.1679 76.502C22.5586 76.1894 22.7149 75.8182 22.7931 75.1735C22.8907 74.3725 22.8321 74.1967 22.3047 73.6106L21.7186 72.9464L14.8027 72.8487C8.04316 72.751 7.88687 72.751 7.18357 72.3017C6.18722 71.696 5.30809 70.6215 4.70246 69.3321L4.19452 68.2576L4.13591 49.4442L4.09684 30.6503H46.4906H88.8843V40.5161V50.3819H88.0052C86.9502 50.3819 86.0906 50.7141 85.231 51.4369L84.6059 51.9644L82.8867 51.2806L81.1675 50.5968L81.0503 49.6396C80.8744 48.3306 80.386 47.3734 79.4678 46.5919C78.3543 45.6346 77.436 45.4393 74.3102 45.537C71.751 45.5956 71.5361 45.6346 70.657 46.1426C69.4457 46.8654 68.5666 48.3306 68.5666 49.6591C68.5666 50.4796 68.508 50.6164 68.0391 50.8117C67.7265 50.929 66.9451 51.2611 66.2808 51.5737C65.1087 52.1011 65.0696 52.1011 64.7375 51.73C63.6825 50.5578 61.1623 50.0498 59.619 50.675C58.7594 51.0462 55.3991 54.2892 54.8912 55.266C54.0707 56.8875 54.266 58.763 55.4187 60.2868L56.0829 61.166L55.3991 62.7484L54.7153 64.3504L53.7581 64.4676C52.4687 64.6434 51.5114 65.1123 50.7104 66.011C49.8117 67.0073 49.6164 67.8083 49.6164 70.5434V72.8487H43.7555C37.2694 72.8487 37.0155 72.8877 36.4099 74.0404C36.0387 74.7632 36.1754 75.7205 36.7029 76.4043L37.0741 76.8536L45.9045 76.9513L54.7153 77.049L55.3991 78.7486L56.1024 80.4678L55.5554 81.093C54.774 82.0307 54.5004 82.8512 54.5004 84.1797C54.5004 85.8208 54.8912 86.4655 57.2746 88.7903C59.1305 90.6072 59.3845 90.8025 60.3809 91.0174C61.8266 91.33 63.155 91.037 64.3663 90.1187C65.2259 89.4545 65.2454 89.435 65.8706 89.7671C66.2222 89.9429 66.9451 90.236 67.4725 90.4313L68.4689 90.7634L68.5861 91.8575C68.7424 93.2446 69.5043 94.573 70.5593 95.2763C71.3407 95.7843 71.4775 95.8038 74.4861 95.8624C78.1003 95.9406 78.8817 95.7452 79.9172 94.5926C80.7181 93.6743 81.0698 92.7952 81.0698 91.7598V90.9197L82.8476 90.1578L84.6254 89.4154L85.1333 89.9038C86.0906 90.783 86.9307 91.0956 88.3178 91.0956C89.3336 91.0956 89.7634 90.9979 90.4668 90.5876C91.4826 89.982 94.3545 87.0906 94.8038 86.2115C95.6048 84.6486 95.3704 82.5973 94.2568 81.2883L93.5926 80.5264L94.3154 78.7291L95.0187 76.9513H95.9174C97.6366 76.9318 99.3558 75.6814 99.8246 74.0795C99.9614 73.6106 100.02 72.1649 99.9809 70.2894C99.9223 67.2808 99.9223 67.2418 99.3558 66.4212C98.6134 65.3663 97.3826 64.6434 96.0541 64.5067L95.0187 64.409L94.3154 62.7484L93.6121 61.0878L94.2763 60.2282C95.0773 59.1733 95.4094 58.0206 95.2727 56.7898C95.1359 55.6567 94.8233 55.0316 93.7879 53.8594L92.9869 52.9607V31.4904C92.9869 13.3216 92.9283 9.82463 92.6939 8.67198C92.0101 5.42896 90.0174 2.71342 87.3605 1.40449L85.8757 0.662109L46.7055 0.623036C8.21899 0.583964 7.49615 0.583964 6.46073 0.955153ZM85.6999 5.25314C86.8721 5.91737 87.4777 6.64021 88.2396 8.28126L88.7866 9.45344L88.8452 17.9908L88.9039 26.5477H46.4906H4.0773L4.13591 17.8931L4.19452 9.25807L4.76107 8.04682C5.36669 6.73789 6.59748 5.40943 7.67198 4.96009C8.19946 4.72566 14.3338 4.68658 46.4906 4.66705H84.684L85.6999 5.25314ZM76.9672 51.3588C77.1039 53.7813 77.1039 53.7813 79.9953 54.6799C80.7572 54.9144 82.0075 55.4614 82.789 55.8716C84.8989 57.0047 85.5436 56.9461 87.1065 55.52L88.3178 54.426L89.783 55.8716L91.2287 57.2978L90.2714 58.2941C88.5717 60.0329 88.5327 60.4431 89.7439 62.8461C90.2128 63.8034 90.7989 65.2295 91.0333 66.0305C91.678 68.1404 92.0101 68.4335 94.12 68.5507L95.8197 68.6484L95.8783 70.7388L95.9369 72.8487H94.4131C92.0492 72.8487 91.7366 73.1417 90.9161 75.8573C90.7207 76.502 90.1932 77.7523 89.7244 78.6509C88.5327 80.9562 88.5717 81.347 90.076 82.9294L91.2873 84.1602L89.9588 85.5473C89.2164 86.2896 88.4936 86.9148 88.3373 86.9148C88.181 86.9148 87.5363 86.4264 86.9111 85.8403C85.5045 84.5118 84.9184 84.4337 83.1211 85.43C82.4764 85.8012 81.0112 86.4264 79.8976 86.7976C77.2016 87.7158 77.0844 87.8525 76.9867 90.0601L76.9281 91.8184L74.8377 91.7598L72.7669 91.7012L72.6692 90.0015C72.552 87.8916 72.2589 87.5595 70.1685 86.9343C69.3871 86.6999 67.9805 86.1138 67.0623 85.6449C64.6593 84.3946 64.1904 84.4337 62.6275 85.938L61.4163 87.0906L60.0097 85.684C59.2282 84.9026 58.6031 84.1797 58.6031 84.082C58.6031 83.9844 59.0915 83.3983 59.6971 82.7926C61.1232 81.3665 61.1623 80.7999 60.0097 78.7096C59.5799 77.9086 58.9938 76.4824 58.7008 75.5447C57.9779 73.2394 57.6849 72.9854 55.5163 72.8487L53.8167 72.751V70.6997V68.6484L55.4968 68.5898C57.6458 68.5116 57.9974 68.2381 58.6031 66.1868C58.8375 65.3858 59.4236 63.9597 59.8925 63.0219C61.0842 60.619 61.0646 60.1306 59.6776 58.6263C59.0915 57.9816 58.6031 57.3759 58.6031 57.2783C58.6031 57.1806 59.2087 56.4968 59.9511 55.774L61.3186 54.426L62.4908 55.52C64.1709 57.0634 64.503 57.1024 66.9255 55.8912C67.9805 55.3442 69.4848 54.719 70.2467 54.5041C72.2003 53.9376 72.552 53.5078 72.6301 51.5932C72.6692 50.7727 72.7278 49.9717 72.7669 49.8349C72.845 49.6591 73.3725 49.6005 74.8573 49.6396L76.8695 49.6982L76.9672 51.3588Z" fill="white"/>
<path d="M15.7991 9.41432C13.6892 10.313 12.3607 11.8368 11.7941 14.0249C11.0322 17.0725 12.4974 20.2765 15.3302 21.6831C16.1703 22.0934 16.5805 22.152 18.2606 22.152C19.9017 22.152 20.3706 22.0738 21.1129 21.7026C22.5586 20.9993 23.555 20.003 24.2583 18.5768C24.8444 17.4047 24.903 17.1116 24.903 15.6073C24.8834 14.3179 24.7858 13.7318 24.4537 12.9895C23.7894 11.5242 22.8126 10.4693 21.4451 9.74644C20.3706 9.16035 19.9994 9.0822 18.5537 9.0236C17.1471 8.96499 16.7173 9.0236 15.7991 9.41432ZM19.55 13.5169C19.9212 13.7514 20.3706 14.2984 20.5855 14.7087C21.0348 15.6464 20.8004 16.6037 19.9212 17.4633C19.3938 17.9712 19.1593 18.0494 18.2606 18.0494C17.362 18.0494 17.1275 17.9712 16.6196 17.4828C15.8968 16.7795 15.5842 15.8222 15.8186 15.0017C16.0335 14.2593 16.3266 13.8881 17.0885 13.4193C17.8699 12.9504 18.7491 12.9699 19.55 13.5169Z" fill="white"/>
<path d="M33.2058 9.29703C31.4476 9.90265 30.2559 10.9967 29.2791 12.8722C28.8883 13.6145 28.8297 14.0443 28.8102 15.6072C28.8102 17.8539 29.2204 18.8698 30.7638 20.4132C32.1704 21.8198 33.538 22.3082 35.7456 22.2105C37.6992 22.1128 38.8909 21.6049 40.1998 20.2764C44.322 16.0957 41.2743 8.92584 35.3939 8.96491C34.6711 8.98445 33.6943 9.1212 33.2058 9.29703ZM36.5465 13.3606C37.8164 14.0248 38.3244 15.998 37.4843 17.0529C36.2535 18.6158 33.9482 18.4205 33.1277 16.7013C32.737 15.8808 32.737 15.3533 33.0886 14.6695C33.831 13.2434 35.2572 12.6963 36.5465 13.3606Z" fill="white"/>
<path d="M56.5126 9.23864C54.6566 9.82472 53.0351 11.3681 52.3318 13.2436C51.7848 14.7283 51.8629 17.229 52.5272 18.5379C53.1328 19.7296 54.3831 20.9995 55.5748 21.6246L56.5516 22.1521L66.9059 22.2107C78.4323 22.2693 78.3151 22.2889 80.1319 20.9604C82.0074 19.5733 83.1015 16.8578 82.6717 14.5916C82.2419 12.2863 80.9329 10.528 78.9207 9.57075L77.8462 9.06281L67.5896 9.02374C59.5602 9.0042 57.1573 9.04327 56.5126 9.23864ZM77.1624 13.3608C79.0379 14.3181 79.0379 16.8969 77.1624 17.8541C76.6935 18.1081 75.1306 18.1472 67.2966 18.1472C57.04 18.1472 57.2159 18.1667 56.454 16.9164C55.692 15.6661 56.2 13.9078 57.4894 13.3608C58.4467 12.931 76.3419 12.931 77.1624 13.3608Z" fill="white"/>
<path d="M72.2785 58.8803C70.1296 59.3687 67.9024 60.5995 66.32 62.2015C61.2405 67.2614 61.6117 75.4861 67.1405 80.0967C68.3713 81.1321 70.8915 82.3434 72.4348 82.6364C74.0954 82.949 77.1235 82.7732 78.7451 82.2457C82.1053 81.1907 85.0748 78.2407 86.2861 74.8024C86.9503 72.8683 87.1261 69.8206 86.6573 67.9647C85.6218 63.862 82.5351 60.5018 78.6278 59.2515C76.6547 58.6263 74.0759 58.47 72.2785 58.8803ZM76.2053 62.8852C78.7255 63.3541 80.8354 64.9756 81.9881 67.3395C82.6914 68.7461 82.7305 68.9219 82.7305 70.6802C82.7109 73.3176 82.2421 74.4507 80.4056 76.2871C78.5692 78.1235 77.4361 78.5924 74.8183 78.6119C73.1381 78.6119 72.8451 78.5533 71.6534 77.9868C68.3127 76.4043 66.3786 72.9073 66.9842 69.5666C67.6094 66.2259 69.8951 63.7839 73.1577 62.9634C74.408 62.6508 74.9159 62.6508 76.2053 62.8852Z" fill="white"/>
<path d="M30.3733 42.04C29.9044 42.4307 29.6504 43.3098 27.8335 50.968C26.7004 55.6372 25.7822 59.7594 25.7822 60.111C25.7822 62.0451 28.9862 62.6507 29.6895 60.8534C29.7872 60.5994 30.7444 56.6726 31.8385 52.1207C33.9679 43.2317 34.007 42.8214 33.1083 42.0204C32.405 41.4343 31.0766 41.4343 30.3733 42.04Z" fill="white"/>
<path d="M18.0459 43.134C17.4989 43.3684 12.2241 49.1316 11.5012 50.2843C10.9738 51.1439 10.9933 52.7068 11.5598 53.4296C12.6929 54.8753 17.2644 59.8961 17.7333 60.1892C18.5929 60.7557 19.472 60.6385 20.234 59.8766C20.9568 59.1537 21.0935 58.3528 20.6637 57.5518C20.5465 57.3173 19.3939 55.9693 18.124 54.5432C16.8542 53.1366 15.8188 51.8862 15.8188 51.7886C15.8188 51.6909 16.8346 50.4796 18.085 49.0926C20.6442 46.2207 21.0154 45.6346 20.82 44.6774C20.6051 43.4661 19.1595 42.6651 18.0459 43.134Z" fill="white"/>
<path d="M39.9263 43.1341C39.223 43.4467 38.676 44.3063 38.676 45.1268C38.676 45.9278 38.5783 45.8106 42.6418 50.3625C43.2475 51.0658 43.7554 51.7105 43.7554 51.7887C43.7554 51.8668 42.72 53.0976 41.4501 54.5238C40.1607 55.9499 39.0276 57.3175 38.9104 57.5519C37.9727 59.2906 40.024 61.2638 41.7236 60.287C42.212 60.0135 47.565 54.0549 48.0729 53.2148C48.5027 52.5506 48.5613 51.0854 48.1902 50.4602C47.9362 49.9913 42.9349 44.3258 42.1339 43.5834C41.6064 43.095 40.5515 42.8801 39.9263 43.1341Z" fill="white"/>
<path d="M28.6344 73.1418C27.8139 73.5716 27.5599 74.021 27.5404 74.9587C27.5404 76.17 28.3219 76.9514 29.5722 76.9514C30.7834 76.9514 31.4477 76.3653 31.5844 75.1736C31.6821 74.3922 31.6235 74.1968 31.1351 73.6498C30.4513 72.8879 29.455 72.6925 28.6344 73.1418Z" fill="white"/>
</svg>
