<svg width="100" height="100" viewBox="0 0 100 100" fill="none" xmlns="http://www.w3.org/2000/svg">
<path d="M94.9219 0.117188C94.6484 0.175781 93.418 0.332031 92.1875 0.507812C79.8828 2.14844 67.4414 6.62109 58.4375 12.6367C54.375 15.3516 49.5312 19.6094 46.4062 23.2227L45.4883 24.2773L43.9648 23.5547C37.5977 20.5664 31.5625 21.6797 26.543 26.7578C22.168 31.1914 18.75 39.3359 18.75 45.332C18.75 46.9336 18.7891 47.1289 19.2188 47.5586C20.2344 48.5742 21.1719 48.457 22.793 47.0703C24.9805 45.1562 27.7539 44.1406 30.6836 44.1406C33.1445 44.1406 33.2031 44.2383 32.1289 46.9727C31.6602 48.1445 30.918 50.3516 30.4492 51.8555C29.707 54.3359 29.6484 54.707 29.7461 56.0938L29.8438 57.5977L28.75 58.2227C25.1953 60.2148 23.0859 62.6953 21.4453 66.7578C20.1172 70.0391 18.75 76.25 18.75 79.0039C18.75 80.0781 18.8086 80.293 19.2969 80.7617C19.8242 81.2891 19.8438 81.3086 21.7773 81.1914C25.5664 80.957 32.0703 79.2969 35.0391 77.793C37.8906 76.3477 40.1367 74.1797 41.7773 71.25L42.4023 70.1562L43.9062 70.2539C45.293 70.3516 45.6836 70.293 48.0469 69.5703C49.4922 69.1406 51.6992 68.3789 52.9297 67.9102C55.7812 66.7969 55.8594 66.8359 55.8594 69.3164C55.8594 72.2852 54.8633 74.9414 52.9297 77.207C51.543 78.8281 51.4258 79.7656 52.4414 80.7812C52.8711 81.2109 53.0859 81.25 54.5508 81.25C60.6641 81.25 68.7695 77.8711 73.2422 73.457C78.3203 68.4375 79.4336 62.4023 76.4453 56.0352L75.7227 54.5117L76.7773 53.5938C78.8281 51.8164 82.9297 47.5195 84.4922 45.4883C90.5469 37.7148 94.8828 28.4766 97.6367 17.4805C98.9844 12.1094 99.9805 5.74219 100 2.61719C100 1.15234 99.9609 0.996094 99.4922 0.507812C99.0039 0.0195312 98.8672 0 97.1875 0.0195312C96.2109 0.0390625 95.1953 0.078125 94.9219 0.117188ZM95.7617 4.72656C95.1367 9.96094 93.5742 17.5977 92.4609 20.6836C92.4023 20.8789 90.1367 18.75 85.7422 14.3555C82.0898 10.7031 79.1797 7.67578 79.2578 7.59766C79.4922 7.38281 82.8906 6.48438 86.1133 5.78125C88.6328 5.21484 92.1875 4.60938 95.2148 4.23828C95.5469 4.19922 95.8008 4.14062 95.8203 4.12109C95.8203 4.12109 95.8008 4.39453 95.7617 4.72656ZM82.8125 17.2852L90.8984 25.3711L90.0586 27.4805C88.1445 32.2266 85.0391 37.8711 82.3633 41.4258C76.582 49.1406 68.3008 55.918 58.6719 60.8398L56.1523 62.1094L47.0508 53.0078L37.9297 43.8867L38.3789 42.8906C39.7656 39.7461 43.1445 34.1797 45.8789 30.5273C52.0898 22.2266 58.5742 16.7188 67.2852 12.3438C69.7461 11.0938 74.1211 9.19922 74.5117 9.17969C74.6289 9.17969 78.3594 12.832 82.8125 17.2852ZM39.2578 26.25C40.4492 26.5039 42.7734 27.4023 42.7734 27.6172C42.7734 27.6758 42.1289 28.6133 41.3281 29.7266C39.5898 32.1289 37.1484 36.1328 35.8203 38.75C35.0977 40.1562 34.7852 40.6055 34.5703 40.5078C33.6523 40.1367 32.4414 40.0195 30.1758 40.0977C27.5195 40.1953 26.0547 40.4883 24.2578 41.3086L23.2422 41.7773L23.3594 41.25C24.5508 36.3086 27.6172 31.0156 30.7812 28.4961C33.4961 26.3281 36.2305 25.6055 39.2578 26.25ZM51.8359 63.8867C51.6992 64.1211 45.6641 66.0352 44.668 66.1523L43.7305 66.2695L38.7305 61.2695L33.7305 56.2695L33.8477 55.332C33.9648 54.4141 35.2344 50.1953 35.8594 48.7305L36.1719 47.9883L44.043 55.8594C48.3789 60.1953 51.8945 63.8086 51.8359 63.8867ZM72.9883 58.3398C75.6836 64.4727 72.6367 70.3906 64.7461 74.375C62.2656 75.625 58.3984 76.9531 58.3984 76.543C58.3984 76.4258 58.5352 76.0742 58.7109 75.7422C58.8867 75.4102 59.2383 74.3164 59.4922 73.3008C60.0586 71.0938 60.1367 67.2461 59.668 65.918C59.5117 65.5078 59.4141 65.1367 59.4336 65.1367C59.4531 65.1172 60.5273 64.5508 61.8164 63.8672C64.707 62.3633 68.5156 59.9805 70.6055 58.4375C71.4648 57.793 72.2461 57.2461 72.3242 57.2461C72.4023 57.2266 72.7148 57.7344 72.9883 58.3398ZM38.7695 68.0859C38.2617 69.2969 37.0508 70.9961 35.8594 72.168C34.5117 73.4766 32.6562 74.4922 29.9023 75.3906C28.1445 75.957 23.2617 77.0312 23.1055 76.8945C22.9492 76.7383 24.043 71.8555 24.6289 70.0781C25.2539 68.125 26.3086 65.9375 27.1094 64.8828C27.8711 63.8867 29.8828 62.2852 31.2891 61.543L32.5 60.918L35.7617 64.1797L39.043 67.4609L38.7695 68.0859Z" fill="white"/>
<path d="M68.0273 20C65.7226 20.5665 63.5547 22.0899 62.2461 24.0821C58.4375 29.8633 61.4844 37.5782 68.2031 39.1602C73.4961 40.4102 78.9648 36.9532 80.0586 31.6797C81.5429 24.5313 75.1172 18.2813 68.0273 20ZM72.8515 24.4141C74.0429 25 74.9219 25.879 75.5469 27.0508C76.25 28.379 76.289 30.7227 75.625 31.9727C74.9414 33.2618 74.1015 34.1211 72.8906 34.7071C70.0195 36.1133 66.5039 34.8243 65.1953 31.8946C63.8281 28.8086 65.3906 25.3321 68.6914 24.1016C69.7461 23.711 71.7578 23.8477 72.8515 24.4141Z" fill="white"/>
<path d="M56.543 40.4688C54.5313 42.4805 54.2774 43.0469 54.7656 44.2188C54.9805 44.7071 55.2735 45.0196 55.7422 45.2149C56.9336 45.7227 57.5195 45.4493 59.5313 43.4571C61.3281 41.6602 61.3281 41.6602 61.3281 40.6836C61.3281 39.8829 61.2305 39.6094 60.8203 39.1797C60.3906 38.7696 60.1172 38.6719 59.3164 38.6719C58.3399 38.6719 58.3399 38.6719 56.543 40.4688Z" fill="white"/>
<path d="M49.668 47.5586C49.043 48.1836 48.9844 48.3398 49.082 49.0429C49.2773 50.5664 50.7617 51.3867 52.0508 50.6836C53.9648 49.6679 53.1836 46.875 50.957 46.875C50.5273 46.875 50.1562 47.0703 49.668 47.5586Z" fill="white"/>
<path d="M16.8945 52.7148C15.8594 53.3594 10.5859 58.8477 10.4492 59.4141C10.2539 60.1562 10.4688 60.8789 11.0352 61.4453C11.4063 61.8164 11.7188 61.9141 12.4414 61.9141H13.3594L16.6406 58.6328C19.8633 55.4102 19.9219 55.3516 19.9219 54.5312C19.9219 53.4766 19.6875 53.0078 18.9453 52.6367C18.1836 52.2461 17.5977 52.2656 16.8945 52.7148Z" fill="white"/>
<path d="M7.20703 73.3594L0 80.5664V81.4453C0 81.9336 0.136719 82.5196 0.292969 82.7539C0.722656 83.3594 1.79688 83.6719 2.59766 83.418C3.04688 83.2617 5.37109 81.0547 10.2148 76.211L17.1875 69.2188V68.3008C17.1875 67.0508 16.6211 66.4063 15.3516 66.2696L14.4141 66.1524L7.20703 73.3594Z" fill="white"/>
<path d="M41.3672 83.3594L38.0859 86.6406V87.5586C38.0859 88.5938 38.6133 89.336 39.5312 89.5703C40.5664 89.8242 41.0742 89.4531 44.2773 86.2696C47.4609 83.0664 47.832 82.5586 47.5781 81.5235C47.3438 80.6055 46.6016 80.0781 45.5664 80.0781H44.6484L41.3672 83.3594Z" fill="white"/>
<path d="M8.16404 89.7852C3.32029 94.6289 1.11326 96.9531 0.957011 97.4023C0.703105 98.2031 1.0156 99.2773 1.62107 99.707C1.85545 99.8633 2.44139 100 2.92967 100H3.80857L11.0156 92.793L18.2226 85.5859L18.1054 84.6484C17.9687 83.3789 17.3242 82.8125 16.0742 82.8125H15.1562L8.16404 89.7852Z" fill="white"/>
<path d="M23.789 89.7852C18.9453 94.6289 16.7383 96.9531 16.582 97.4023C16.3281 98.2031 16.6406 99.2773 17.2461 99.707C17.4804 99.8633 18.0664 100 18.5547 100H19.4336L26.6406 92.793L33.8476 85.5859L33.7304 84.6484C33.5937 83.3789 32.9492 82.8125 31.6992 82.8125H30.7812L23.789 89.7852Z" fill="white"/>
</svg>
