<svg width="100" height="106" viewBox="0 0 100 106" fill="none" xmlns="http://www.w3.org/2000/svg">
<path d="M77.1268 0.535963C76.6939 0.968838 76.5909 1.27803 76.5909 2.06133C76.5909 2.84463 76.6939 3.15382 77.1268 3.5867L77.6834 4.12264H81.9297H86.176L76.0756 14.2231L65.9751 24.3235L62.0587 20.407C59.9149 18.2632 57.8742 16.408 57.5444 16.2844C57.2146 16.1607 56.658 16.1195 56.3076 16.2019C55.8129 16.2844 51.4635 20.51 36.9519 35.001C26.6454 45.287 18.0909 53.9445 17.926 54.2537C17.4519 55.14 17.5756 55.9852 18.2352 56.7272C18.7506 57.3044 18.9773 57.4075 19.7812 57.4075H20.7294L38.7659 39.371L56.8023 21.3346L60.8837 25.416L64.9651 29.4767H65.9751H67.0058L78.075 18.4075L89.1649 7.31767V10.8837C89.1649 14.6559 89.3092 15.398 90.1749 15.8721C90.7933 16.2019 92.1125 16.1195 92.5866 15.7072C93.4524 15.0064 93.4936 14.6972 93.4936 8.03913C93.4936 1.3811 93.4524 1.0719 92.5866 0.371058C92.195 0.0412486 91.4529 2.24579e-05 84.9186 2.24579e-05H77.6834L77.1268 0.535963Z" fill="white"/>
<path d="M76.1374 30.3837C74.3028 30.8785 72.6744 32.5893 72.2828 34.4445C72.1178 35.1454 72.056 45.7611 72.056 68.4355V101.416H66.3874H60.7188L60.6776 82.473L60.6157 63.5296L59.8531 62.4371C58.2246 60.1078 57.0909 59.7986 50.1855 59.778C47.5264 59.778 44.7849 59.8811 44.1253 60.0048C42.2083 60.3552 40.7241 61.5095 39.9202 63.2822C39.5079 64.1892 39.4873 64.5396 39.4873 82.8028V101.416H33.8187H28.1501V91.6665C28.1501 80.7209 28.1501 80.7415 26.7072 79.0925C26.2331 78.5771 25.4292 77.9794 24.8108 77.6908C23.7389 77.1961 23.6152 77.1961 17.4313 77.1961H11.1443L9.96938 77.7732C8.65014 78.4122 7.88746 79.2161 7.24845 80.5972C6.83619 81.4836 6.81558 81.8752 6.75374 91.4809L6.6919 101.416H4.0122C0.982075 101.416 0.507974 101.581 0.116325 102.777C-0.192871 103.663 0.136938 104.756 0.837783 105.209C1.29127 105.498 5.97044 105.539 50 105.539C94.0296 105.539 98.7087 105.498 99.1622 105.209C99.8631 104.756 100.193 103.663 99.8837 102.777C99.492 101.602 98.9973 101.416 96.0703 101.416H93.4936V68.2706C93.4936 31.0846 93.5967 33.7643 91.9889 32.0122C90.381 30.2601 90.1337 30.1982 83.1871 30.157C78.7346 30.1158 76.8589 30.1776 76.1374 30.3837ZM88.6289 34.8568L89.1649 35.269V68.3531V101.416H82.7748H76.3848V68.4355V35.434L76.9001 34.9392L77.3948 34.4239H82.7336C87.825 34.4239 88.1136 34.4445 88.6289 34.8568ZM55.5243 64.3335C55.9366 64.4778 56.2252 64.7664 56.3694 65.1786C56.5344 65.6115 56.5962 71.4862 56.5962 83.6067V101.416H50.2061H43.8161V83.2151C43.8161 66.1268 43.8367 64.9725 44.1871 64.6839C44.3726 64.4984 44.6818 64.3129 44.8467 64.251C45.4445 64.0449 54.8647 64.1068 55.5243 64.3335ZM23.4297 82.0195C23.8008 82.473 23.8214 82.9471 23.8214 91.955V101.416H17.4313H11.0413L11.0619 92.0787C11.0619 86.9667 11.1443 82.5967 11.2268 82.37C11.5772 81.5042 12.0925 81.4218 17.6993 81.4836C23.0381 81.5248 23.0381 81.5248 23.4297 82.0195Z" fill="white"/>
<path d="M11.4947 60.9117C10.6908 61.5714 10.5053 62.3959 10.9176 63.3647C11.5154 64.8076 13.4324 65.055 14.4424 63.8594C16.0915 61.9012 13.4324 59.2627 11.4947 60.9117Z" fill="white"/>
</svg>
